# xmcd
#
# Track frame offsets:
#	150
#	9089
#	21302
#	34046
#	45407
#	60282
#	68610
#	80884
#	91111
#	105361
#	115594
#	131943
#	143387
#	153817
#	166832
#	176593
#	190159
#	202835
#	213889
#	228425
#	243909
#	259731
#
# Disc length: 3643 seconds
#
# Revision: 0
# Processed by: cddbd v1.5.2PL0 Copyright (c) Steve Scherf et al.
# Submitted via: EasyCDDAExtractor 16.0.6.1
#
DISCID=060e3916
DTITLE=Various Artist - Country Sunrise [Disc 02]
DYEAR=2006
DGENRE=Country
TTITLE0=Don Gibson - Blue, Blue Day
TTITLE1=Merle Haggard - Okie From Muskogee
TTITLE2=Larry Gatlin and The Gatlin Brothers - All The Gold In California
TTITLE3=The Kendalls - Heaven's Just A SIn Away
TTITLE4=Janie Fricke - You Don't Know Love
TTITLE5=Johnny Cash - Guess Things Happen That Way
TTITLE6=Billie Jo Spears - What I've Got In Mind
TTITLE7=Johnny Rodriguez - That's The Way Love Goes
TTITLE8=Conway Twitty - You've Never Been This Far Before
TTITLE9=Patsy Cline - Three Cigarettes In An Ashtray
TTITLE10=Michael Johnson - Give Me Wings
TTITLE11=Hank Locklin - Send Me The Pillow That You Dream On
TTITLE12=The Everly Brothers - Bye Bye Love
TTITLE13=Hank Williams - Jambalaya (On The Bayou)
TTITLE14=Ned Miller - From A Jack To A King
TTITLE15=Patti Page - Tennessee Waltz
TTITLE16=Leroy Van Dyke - Auctioneer
TTITLE17=Roger Miller - King Of The Road
TTITLE18=Exile - Woke Up In Love
TTITLE19=Eddie Rabbitt - Love May Never Pass This Way Again
TTITLE20=Janie Fricke - Always Have, Always Will
TTITLE21=Glen Campbell - Rhinestone Cowboy
EXTD=
EXTT0=
EXTT1=
EXTT2=
EXTT3=
EXTT4=
EXTT5=
EXTT6=
EXTT7=
EXTT8=
EXTT9=
EXTT10=
EXTT11=
EXTT12=
EXTT13=
EXTT14=
EXTT15=
EXTT16=
EXTT17=
EXTT18=
EXTT19=
EXTT20=
EXTT21=
PLAYORDER=
